<?xml version="1.0" encoding="utf-8"?><!DOCTYPE svg PUBLIC "-//W3C//DTD SVG 1.1//EN" "http://www.w3.org/Graphics/SVG/1.1/DTD/svg11.dtd"><svg width="2760" height="2760" viewBox="0 0 2760 2760" xmlns="http://www.w3.org/2000/svg" xmlns:xlink="http://www.w3.org/1999/xlink"><svg width="42" height="42" viewBox="-5 -5 42 42" id="address-book"><title>address-book</title><path fill="#e3dbdb" d="M6 0v32h24V0H6zm12 8.01a3.99 3.99 0 1 1 0 7.98 3.99 3.99 0 0 1 0-7.98zM24 24H12v-2a4 4 0 0 1 4-4h4a4 4 0 0 1 4 4v2zM2 2h3v6H2V2zM2 10h3v6H2v-6zM2 18h3v6H2v-6zM2 26h3v6H2v-6z"/></svg><svg width="42" height="42" viewBox="-5 -5 42 42" id="arrow-up2" x="42" y="42"><title>arrow-up2</title><path fill="#201f1a" d="M27.414 12.586l-10-10a2 2 0 0 0-2.828 0l-10 10a2 2 0 1 0 2.828 2.828L14 8.828V28a2 2 0 1 0 4 0V8.828l6.586 6.586c.39.39.902.586 1.414.586s1.024-.195 1.414-.586a2 2 0 0 0 0-2.828z"/></svg><svg width="42" height="42" viewBox="-5 -5 42 42" id="arrow-up2-accent" x="84" y="84"><title>arrow-up2</title><path fill="#f9c869" d="M27.414 12.586l-10-10a2 2 0 0 0-2.828 0l-10 10a2 2 0 1 0 2.828 2.828L14 8.828V28a2 2 0 1 0 4 0V8.828l6.586 6.586c.39.39.902.586 1.414.586s1.024-.195 1.414-.586a2 2 0 0 0 0-2.828z"/></svg><svg width="42" height="42" viewBox="-5 -5 42 42" id="clock" x="126" y="126"><title>clock</title><path fill="#e3dbdb" d="M20.586 23.414L14 16.828V8h4v7.172l5.414 5.414zM16 0C7.163 0 0 7.163 0 16s7.163 16 16 16 16-7.163 16-16S24.837 0 16 0zm0 28C9.373 28 4 22.627 4 16S9.373 4 16 4s12 5.373 12 12-5.373 12-12 12z"/></svg><svg width="42" height="42" viewBox="-5 -5 42 42" id="facebook" x="168" y="168"><title>facebook</title><path fill="none" d="M0 0h32v32H0z"/><path fill="#201f1a" d="M19 6h5V0h-5c-3.86 0-7 3.14-7 7v3H8v6h4v16h6V16h5l1-6h-6V7c0-.542.458-1 1-1z"/></svg><svg width="522" height="522" viewBox="-5 -5 550.2 550.2" id="fork-and-knife-icon" x="210" y="210"><g fill="#e3dbdb"><path d="M169.467 194.102v310.136c0 8.086 2.95 15.08 8.862 20.986 5.808 5.809 12.681 8.732 20.6 8.824 7.914-.092 14.792-3.016 20.606-8.824 5.906-5.906 8.855-12.9 8.855-20.986V194.102c8.862-3.103 42.081-32.711 42.081-42.204V27.161c0-4.033-1.481-7.534-4.431-10.49-2.956-2.95-6.457-4.431-10.49-4.431-4.045 0-7.54 1.481-10.49 4.431-2.956 2.962-4.431 6.457-4.431 10.49v96.99c0 4.045-1.481 7.54-4.431 10.49-2.956 2.956-6.451 4.425-10.49 4.425-4.045 0-7.54-1.469-10.49-4.425-2.95-2.95-4.431-6.451-4.431-10.49v-96.99c0-4.033-1.481-7.534-4.431-10.49-2.95-2.95-6.45-4.431-10.489-4.431-4.045 0-7.54 1.481-10.49 4.431-2.956 2.962-4.431 6.457-4.431 10.49v96.99c0 4.045-1.481 7.54-4.431 10.49-2.956 2.956-6.451 4.425-10.49 4.425-4.045 0-7.54-1.469-10.49-4.425-2.956-2.95-4.431-6.451-4.431-10.49v-96.99c0-4.033-1.475-7.534-4.431-10.49-2.95-2.95-6.45-4.431-10.49-4.431-4.045 0-7.54 1.481-10.489 4.431-2.95 2.962-4.431 6.457-4.431 10.49v124.732c.003 9.491 39.342 39.1 48.204 42.209z"/><path d="M199.308 534.08c-.129 0-.251-.037-.38-.037-.128 0-.245.037-.379.037h.759zM389.848 540.201c-.129 0-.25-.037-.379-.037s-.252.037-.379.037h.758z"/><path d="M326.139 268.588h33.869v241.771c0 8.084 2.949 15.08 8.855 20.984 5.812 5.809 12.686 8.734 20.605 8.826 7.912-.092 14.791-3.018 20.605-8.826 5.906-5.904 8.861-12.9 8.861-20.984V14.921c0-4.033-1.48-7.534-4.43-10.49C411.549 1.481 408.055 0 404.016 0h-10.723c-20.52 0-38.084 7.308-52.693 21.916-14.607 14.614-21.914 32.179-21.914 52.693v186.52c0 2.02.74 3.77 2.215 5.245 1.468 1.474 3.218 2.214 5.238 2.214z"/></g></svg><svg width="522" height="522" viewBox="-5 -5 550.2 550.2" id="fork-and-knife-icon-accent" x="732" y="732"><g fill="#f9c869"><path d="M169.467 194.102v310.136c0 8.086 2.95 15.08 8.862 20.986 5.808 5.809 12.681 8.732 20.6 8.824 7.914-.092 14.792-3.016 20.606-8.824 5.906-5.906 8.855-12.9 8.855-20.986V194.102c8.862-3.103 42.081-32.711 42.081-42.204V27.161c0-4.033-1.481-7.534-4.431-10.49-2.956-2.95-6.457-4.431-10.49-4.431-4.045 0-7.54 1.481-10.49 4.431-2.956 2.962-4.431 6.457-4.431 10.49v96.99c0 4.045-1.481 7.54-4.431 10.49-2.956 2.956-6.451 4.425-10.49 4.425-4.045 0-7.54-1.469-10.49-4.425-2.95-2.95-4.431-6.451-4.431-10.49v-96.99c0-4.033-1.481-7.534-4.431-10.49-2.95-2.95-6.45-4.431-10.489-4.431-4.045 0-7.54 1.481-10.49 4.431-2.956 2.962-4.431 6.457-4.431 10.49v96.99c0 4.045-1.481 7.54-4.431 10.49-2.956 2.956-6.451 4.425-10.49 4.425-4.045 0-7.54-1.469-10.49-4.425-2.956-2.95-4.431-6.451-4.431-10.49v-96.99c0-4.033-1.475-7.534-4.431-10.49-2.95-2.95-6.45-4.431-10.49-4.431-4.045 0-7.54 1.481-10.489 4.431-2.95 2.962-4.431 6.457-4.431 10.49v124.732c.003 9.491 39.342 39.1 48.204 42.209z"/><path d="M199.308 534.08c-.129 0-.251-.037-.38-.037-.128 0-.245.037-.379.037h.759zM389.848 540.201c-.129 0-.25-.037-.379-.037s-.252.037-.379.037h.758z"/><path d="M326.139 268.588h33.869v241.771c0 8.084 2.949 15.08 8.855 20.984 5.812 5.809 12.686 8.734 20.605 8.826 7.912-.092 14.791-3.018 20.605-8.826 5.906-5.904 8.861-12.9 8.861-20.984V14.921c0-4.033-1.48-7.534-4.43-10.49C411.549 1.481 408.055 0 404.016 0h-10.723c-20.52 0-38.084 7.308-52.693 21.916-14.607 14.614-21.914 32.179-21.914 52.693v186.52c0 2.02.74 3.77 2.215 5.245 1.468 1.474 3.218 2.214 5.238 2.214z"/></g></svg><svg width="522" height="522" viewBox="-5 -5 550.2 550.2" id="fork-and-knife-icon-white" x="1254" y="1254"><g fill="#FFF"><path d="M169.467 194.102v310.136c0 8.086 2.95 15.08 8.862 20.986 5.808 5.809 12.681 8.732 20.6 8.824 7.914-.092 14.792-3.016 20.606-8.824 5.906-5.906 8.855-12.9 8.855-20.986V194.102c8.862-3.103 42.081-32.711 42.081-42.204V27.161c0-4.033-1.481-7.534-4.431-10.49-2.956-2.95-6.457-4.431-10.49-4.431-4.045 0-7.54 1.481-10.49 4.431-2.956 2.962-4.431 6.457-4.431 10.49v96.99c0 4.045-1.481 7.54-4.431 10.49-2.956 2.956-6.451 4.425-10.49 4.425-4.045 0-7.54-1.469-10.49-4.425-2.95-2.95-4.431-6.451-4.431-10.49v-96.99c0-4.033-1.481-7.534-4.431-10.49-2.95-2.95-6.45-4.431-10.489-4.431-4.045 0-7.54 1.481-10.49 4.431-2.956 2.962-4.431 6.457-4.431 10.49v96.99c0 4.045-1.481 7.54-4.431 10.49-2.956 2.956-6.451 4.425-10.49 4.425-4.045 0-7.54-1.469-10.49-4.425-2.956-2.95-4.431-6.451-4.431-10.49v-96.99c0-4.033-1.475-7.534-4.431-10.49-2.95-2.95-6.45-4.431-10.49-4.431-4.045 0-7.54 1.481-10.489 4.431-2.95 2.962-4.431 6.457-4.431 10.49v124.732c.003 9.491 39.342 39.1 48.204 42.209z"/><path d="M199.308 534.08c-.129 0-.251-.037-.38-.037-.128 0-.245.037-.379.037h.759zM389.848 540.201c-.129 0-.25-.037-.379-.037s-.252.037-.379.037h.758z"/><path d="M326.139 268.588h33.869v241.771c0 8.084 2.949 15.08 8.855 20.984 5.812 5.809 12.686 8.734 20.605 8.826 7.912-.092 14.791-3.018 20.605-8.826 5.906-5.904 8.861-12.9 8.861-20.984V14.921c0-4.033-1.48-7.534-4.43-10.49C411.549 1.481 408.055 0 404.016 0h-10.723c-20.52 0-38.084 7.308-52.693 21.916-14.607 14.614-21.914 32.179-21.914 52.693v186.52c0 2.02.74 3.77 2.215 5.245 1.468 1.474 3.218 2.214 5.238 2.214z"/></g></svg><svg width="42" height="42" viewBox="-5 -5 42 42" id="instagram" x="1776" y="1776"><title>instagram</title><path fill="none" d="M0 0h32v32H0z"/><path fill="#201f1a" d="M16 2.881c4.275 0 4.781.019 6.462.094 1.563.069 2.406.331 2.969.55a4.952 4.952 0 0 1 1.837 1.194 5.015 5.015 0 0 1 1.2 1.838c.219.563.481 1.412.55 2.969.075 1.688.094 2.194.094 6.463s-.019 4.781-.094 6.463c-.069 1.563-.331 2.406-.55 2.969a4.94 4.94 0 0 1-1.194 1.837 5.02 5.02 0 0 1-1.837 1.2c-.563.219-1.413.481-2.969.55-1.688.075-2.194.094-6.463.094s-4.781-.019-6.463-.094c-1.563-.069-2.406-.331-2.969-.55a4.952 4.952 0 0 1-1.838-1.194 5.02 5.02 0 0 1-1.2-1.837c-.219-.563-.481-1.413-.55-2.969-.075-1.688-.094-2.194-.094-6.463s.019-4.781.094-6.463c.069-1.563.331-2.406.55-2.969a4.964 4.964 0 0 1 1.194-1.838 5.015 5.015 0 0 1 1.838-1.2c.563-.219 1.412-.481 2.969-.55 1.681-.075 2.188-.094 6.463-.094zM16 0c-4.344 0-4.887.019-6.594.094-1.7.075-2.869.35-3.881.744-1.056.412-1.95.956-2.837 1.85a7.833 7.833 0 0 0-1.85 2.831C.444 6.538.169 7.7.094 9.4.019 11.113 0 11.656 0 16s.019 4.887.094 6.594c.075 1.7.35 2.869.744 3.881.413 1.056.956 1.95 1.85 2.837a7.82 7.82 0 0 0 2.831 1.844c1.019.394 2.181.669 3.881.744 1.706.075 2.25.094 6.594.094s4.888-.019 6.594-.094c1.7-.075 2.869-.35 3.881-.744 1.05-.406 1.944-.956 2.831-1.844s1.438-1.781 1.844-2.831c.394-1.019.669-2.181.744-3.881.075-1.706.094-2.25.094-6.594s-.019-4.887-.094-6.594c-.075-1.7-.35-2.869-.744-3.881a7.506 7.506 0 0 0-1.831-2.844A7.82 7.82 0 0 0 26.482.843C25.463.449 24.301.174 22.601.099c-1.712-.081-2.256-.1-6.6-.1z"/><path d="M16 7.781c-4.537 0-8.219 3.681-8.219 8.219s3.681 8.219 8.219 8.219 8.219-3.681 8.219-8.219A8.221 8.221 0 0 0 16 7.781zm0 13.55a5.331 5.331 0 1 1 0-10.663 5.331 5.331 0 0 1 0 10.663zM26.462 7.456a1.919 1.919 0 1 1-3.838 0 1.919 1.919 0 0 1 3.838 0z"/></svg><svg width="42" height="42" viewBox="-5 -5 42 42" id="left" x="1818" y="1818"><title>circle-left</title><path fill="#282b2b" d="M20.914 9.914l-2.829-2.829-8.914 8.914 8.914 8.914 2.828-2.828-6.086-6.086z"/></svg><svg width="42" height="42" viewBox="-5 -5 42 42" id="left-white" x="1860" y="1860"><title>circle-left</title><path fill="#fff" d="M20.914 9.914l-2.829-2.829-8.914 8.914 8.914 8.914 2.828-2.828-6.086-6.086z"/></svg><svg width="42" height="42" viewBox="-5 -5 42 42" id="linkedin2" x="1902" y="1902"><title>linkedin2</title><path fill="none" d="M0 0h32v32H0z"/><path fill="#201f1a" d="M12 12h5.535v2.837h.079c.77-1.381 2.655-2.837 5.464-2.837C28.92 12 30 15.637 30 20.367V30h-5.769v-8.54c0-2.037-.042-4.657-3.001-4.657-3.005 0-3.463 2.218-3.463 4.509V30H12V12z"/><path d="M2 12h6v18H2V12zM8 7a3 3 0 1 1-6 0 3 3 0 0 1 6 0z"/></svg><svg width="42" height="42" viewBox="-5 -5 42 42" id="mobile" x="1944" y="1944"><title>mobile</title><path fill="#e3dbdb" d="M23 0H9C7.35 0 6 1.35 6 3v26c0 1.65 1.35 3 3 3h14c1.65 0 3-1.35 3-3V3c0-1.65-1.35-3-3-3zM12 1.5h8v1h-8v-1zM16 30a2 2 0 1 1-.001-3.999A2 2 0 0 1 16 30zm8-6H8V4h16v20z"/></svg><svg width="42" height="42" viewBox="-5 -5 42 42" id="quotes-left" x="1986" y="1986"><title>quotes-left</title><path fill="#f9c869" d="M7.031 14a7 7 0 1 1-7 7L0 20C0 12.268 6.268 6 14 6v4a9.934 9.934 0 0 0-7.071 2.929 10.24 10.24 0 0 0-.995 1.157A7.081 7.081 0 0 1 7.031 14zm18 0a7 7 0 1 1-7 7L18 20c0-7.732 6.268-14 14-14v4a9.934 9.934 0 0 0-7.071 2.929 10.24 10.24 0 0 0-.995 1.157A7.09 7.09 0 0 1 25.031 14z"/></svg><svg width="42" height="42" viewBox="-5 -5 42 42" id="quotes-right" x="2028" y="2028"><title>quotes-right</title><path fill="#f9c869" d="M25 20a7 7 0 1 1 7-7l.031 1c0 7.732-6.268 14-14 14v-4a9.934 9.934 0 0 0 7.071-2.929c.364-.364.695-.75.995-1.157A7.081 7.081 0 0 1 25 20zM7 20a7 7 0 1 1 7-7l.031 1c0 7.732-6.268 14-14 14v-4a9.934 9.934 0 0 0 7.071-2.929c.364-.364.695-.75.995-1.157A7.081 7.081 0 0 1 7 20z"/></svg><svg width="42" height="42" viewBox="-5 -5 42 42" id="right" x="2070" y="2070"><title>circle-right</title><path fill="#282b2b" d="M11.086 22.086l2.829 2.829 8.914-8.914-8.914-8.914-2.828 2.828 6.086 6.086z"/></svg><svg width="42" height="42" viewBox="-5 -5 42 42" id="right-white" x="2112" y="2112"><title>circle-right</title><path fill="#fff" d="M11.086 22.086l2.829 2.829 8.914-8.914-8.914-8.914-2.828 2.828 6.086 6.086z"/></svg><svg width="42" height="42" viewBox="-5 -5 42 42" id="star-full" x="2154" y="2154"><title>star-full</title><path fill="#f9c869" d="M32 12.408l-11.056-1.607L16 .783l-4.944 10.018L0 12.408l8 7.798-1.889 11.011L16 26.018l9.889 5.199L24 20.206l8-7.798z"/></svg><svg width="42" height="42" viewBox="-5 -5 42 42" id="twitter" x="2196" y="2196"><title>twitter</title><path fill="none" d="M0 0h32v32H0z"/><path fill="#201f1a" d="M32 7.075a12.941 12.941 0 0 1-3.769 1.031 6.601 6.601 0 0 0 2.887-3.631 13.21 13.21 0 0 1-4.169 1.594A6.565 6.565 0 0 0 22.155 4a6.563 6.563 0 0 0-6.563 6.563c0 .512.056 1.012.169 1.494A18.635 18.635 0 0 1 2.23 5.195a6.56 6.56 0 0 0-.887 3.3 6.557 6.557 0 0 0 2.919 5.463 6.565 6.565 0 0 1-2.975-.819v.081a6.565 6.565 0 0 0 5.269 6.437 6.574 6.574 0 0 1-2.968.112 6.588 6.588 0 0 0 6.131 4.563 13.17 13.17 0 0 1-9.725 2.719 18.568 18.568 0 0 0 10.069 2.95c12.075 0 18.681-10.006 18.681-18.681 0-.287-.006-.569-.019-.85A13.216 13.216 0 0 0 32 7.076z"/></svg><svg width="522" height="522" viewBox="-5 -5 41.42 41.42" id="world" x="2238" y="2238"><g fill="#FFF"><path d="M28.755 6.968l-.47.149-2.503.223-.707 1.129-.513-.163L22.57 6.51l-.289-.934-.387-.996-1.252-1.123-1.477-.289-.034.676 1.447 1.412.708.834-.796.416-.648-.191-.971-.405.033-.783-1.274-.524-.423 1.841-1.284.291.127 1.027 1.673.322.289-1.641 1.381.204.642.376h1.03l.705 1.412 1.869 1.896-.137.737-1.507-.192-2.604 1.315-1.875 2.249-.244.996h-.673l-1.254-.578-1.218.578.303 1.285.53-.611.932-.029-.065 1.154.772.226.771.866 1.259-.354 1.438.227 1.67.449.834.098 1.414 1.605 2.729 1.605-1.765 3.372-1.863.866-.707 1.927-2.696 1.8-.287 1.038c6.892-1.66 12.019-7.851 12.019-15.253a15.639 15.639 0 0 0-2.66-8.739z"/><path d="M17.515 23.917l-1.144-2.121 1.05-2.188-1.05-.314-1.179-1.184-2.612-.586-.867-1.814v1.077h-.382L9.08 13.735v-2.507L7.43 8.545l-2.62.467H3.045l-.888-.582 1.133-.898-1.13.261a15.61 15.61 0 0 0-2.156 7.916c0 8.673 7.031 15.707 15.705 15.707.668 0 1.323-.059 1.971-.137l-.164-1.903s.721-2.826.721-2.922c-.001-.097-.722-2.537-.722-2.537zM5.84 5.065l2.79-.389 1.286-.705 1.447.417 2.312-.128.792-1.245 1.155.19 2.805-.263.773-.852 1.09-.728 1.542.232.562-.085A15.65 15.65 0 0 0 15.708 0 15.662 15.662 0 0 0 3.596 5.711h.008l2.236-.646zm10.532-3.503l1.604-.883 1.03.595-1.491 1.135-1.424.143-.641-.416.922-.574zm-4.751.129l.708.295.927-.295.505.875-2.14.562-1.029-.602c-.001 0 1.006-.648 1.029-.835z"/></g></svg></svg>